<svg width="16" height="16" viewBox="0 0 15 16" fill="none" xmlns="http://www.w3.org/2000/svg">
<!-- <path d="M1.72907 6.25321C0.465893 11.1938 4.60612 15.7488 9.74303 14.8967C11.4537 14.6129 12.9681 13.6787 14.0249 12.3329C15.1675 10.8778 15.6658 9.05625 15.4514 7.22195C15.0383 3.69185 12.1218 0.994373 8.48997 1.00001C6.63226 1.00304 4.88734 1.69627 3.58788 3.00014C2.68618 3.90494 2.04459 5.01892 1.72907 6.25321Z" stroke="#D9D9D9" stroke-width="2"/> -->
<path d="M7.37252 15.386C3.90752 14.8291 1.37357 11.9904 1.12358 8.50629C1.11565 8.39405 1.11278 8.17058 1.11497 7.83589C1.12132 6.93888 1.31143 6.03264 1.64181 5.2072C2.37579 3.37319 3.77401 1.91877 5.58793 1.12922C7.69162 0.213754 10.193 0.365511 12.1648 1.51518C14.7412 3.01758 16.1406 5.87617 15.8445 8.83667C15.6634 10.6475 14.7849 12.3189 13.4621 13.544C12.1962 14.7169 10.4425 15.442 8.71434 15.4671C8.24 15.4738 7.84051 15.4613 7.37252 15.386ZM2.17379 6.36425C0.995612 11.0384 4.85723 15.3477 9.64847 14.5415C11.244 14.2731 12.6566 13.3892 13.6422 12.1161C14.708 10.7394 15.1727 9.01612 14.9727 7.28075C14.5874 3.94105 11.8672 1.38906 8.47973 1.39439C6.74703 1.39726 5.11953 2.0531 3.90752 3.28664C3.06649 4.14264 2.46807 5.19654 2.17379 6.36425Z" fill="white"/>
<path d="M9.6483 14.5417C4.85706 15.3478 0.995441 11.0385 2.17361 6.3644C2.4679 5.19669 3.06632 4.14279 3.90734 3.2868C5.11936 2.05325 6.74686 1.39741 8.47956 1.39454C11.867 1.38921 14.5872 3.9412 14.9725 7.2809C15.1725 9.01627 14.7078 10.7395 13.642 12.1162C12.6564 13.3894 11.2438 14.2732 9.6483 14.5417ZM9.58247 4.74449H10.9165C10.9243 4.74449 10.9282 4.74053 10.9282 4.7326L10.9311 3.35632C10.9311 3.35365 10.93 3.3511 10.9282 3.34921C10.9263 3.34733 10.9238 3.34627 10.9212 3.34627L7.72426 3.3514C7.71729 3.3514 7.71387 3.35488 7.71401 3.36185C7.71893 3.65389 7.71093 3.9736 7.71093 4.23692C7.71066 6.09247 7.71038 7.94802 7.71011 9.80356C7.71011 10.1836 7.66868 10.7262 7.34199 10.9826C7.10882 11.1655 6.77741 11.1733 6.54014 10.9947C6.17756 10.7213 6.14885 10.0991 6.17038 9.68482C6.17093 9.67594 6.16676 9.67149 6.15787 9.67149H4.38272C4.37438 9.67149 4.37007 9.67566 4.3698 9.684C4.35277 10.3095 4.47582 10.9216 4.80579 11.4587C5.6624 12.8539 7.60265 13.0428 8.72238 11.8751C9.30193 11.2707 9.56873 10.4871 9.5673 9.65098C9.56429 8.0187 9.56607 6.38648 9.57263 4.75433C9.57263 4.74777 9.57591 4.74449 9.58247 4.74449Z" fill="black"/>
<path d="M9.57253 4.75426C9.56597 6.38641 9.56419 8.01862 9.5672 9.65091C9.56864 10.487 9.30183 11.2706 8.72228 11.875C7.60255 13.0427 5.66231 12.8538 4.8057 11.4587C4.47573 10.9216 4.35268 10.3094 4.3697 9.68393C4.36997 9.67559 4.37428 9.67142 4.38262 9.67142H6.15778C6.16666 9.67142 6.17083 9.67586 6.17029 9.68475C6.14875 10.099 6.17746 10.7212 6.54004 10.9946C6.77732 11.1732 7.10872 11.1654 7.3419 10.9825C7.66859 10.7261 7.71001 10.1835 7.71001 9.80349C7.71029 7.94794 7.71056 6.09239 7.71083 4.23685C7.71083 3.97353 7.71883 3.65381 7.71391 3.36178C7.71377 3.3548 7.71719 3.35132 7.72416 3.35132L10.9211 3.34619C10.9237 3.34619 10.9262 3.34725 10.9281 3.34913C10.9299 3.35102 10.931 3.35357 10.931 3.35624L10.9281 4.73252C10.9281 4.74045 10.9242 4.74441 10.9164 4.74441H9.58238C9.57581 4.74441 9.57253 4.7477 9.57253 4.75426Z" fill="white"/>
<g style="mix-blend-mode:difference">
<rect x="1" y="0.5" width="15" height="15" rx="7.5" fill="white"/>
</g>
</svg>
