<svg width="17" height="12" viewBox="0 0 17 12" fill="none" xmlns="http://www.w3.org/2000/svg">
<rect x="0.5" y="0.5" width="16" height="11" fill="#003482" stroke="black"/>
<g clip-path="url(#clip0_303_1836)">
<rect x="0.5" y="10.6968" width="19.348" height="1.5" transform="rotate(-35 0.5 10.6968)" fill="white"/>
<rect x="0.5" y="10.6968" width="19.348" height="1.5" transform="rotate(-35 0.5 10.6968)" fill="white"/>
<rect x="0.5" y="10.6968" width="19.348" height="1.5" transform="rotate(-35 0.5 10.6968)" fill="white"/>
<rect x="0.5" y="10.6968" width="19.348" height="1.5" transform="rotate(-35 0.5 10.6968)" fill="white"/>
<rect x="0.5" y="10.6968" width="19.348" height="1.5" transform="rotate(-35 0.5 10.6968)" fill="white"/>
<rect x="1.25" width="19.348" height="1.5" transform="rotate(35 1.25 0)" fill="white"/>
<rect x="1.25" width="19.348" height="1.5" transform="rotate(35 1.25 0)" fill="white"/>
<rect x="1.25" width="19.348" height="1.5" transform="rotate(35 1.25 0)" fill="white"/>
<rect x="1.25" width="19.348" height="1.5" transform="rotate(35 1.25 0)" fill="white"/>
<rect x="1.25" width="19.348" height="1.5" transform="rotate(35 1.25 0)" fill="white"/>
<rect x="-1" y="4.5" width="19" height="3" fill="white"/>
<rect x="-1" y="4.5" width="19" height="3" fill="white"/>
<rect x="-1" y="4.5" width="19" height="3" fill="white"/>
<rect x="-1" y="4.5" width="19" height="3" fill="white"/>
<rect x="-1" y="4.5" width="19" height="3" fill="white"/>
<rect x="7" y="1" width="3" height="10" fill="white"/>
<rect x="7" y="1" width="3" height="10" fill="white"/>
<rect x="7" y="1" width="3" height="10" fill="white"/>
<rect x="7" y="1" width="3" height="10" fill="white"/>
<rect x="7" y="1" width="3" height="10" fill="white"/>
<rect x="7.5" y="1" width="2" height="10" fill="#FF0000"/>
<rect x="1" y="5" width="15" height="2" fill="#FF0000"/>
</g>
<defs>
<clipPath id="clip0_303_1836">
<rect width="15" height="10" fill="white" transform="translate(1 1)"/>
</clipPath>
</defs>
</svg>
